**ABCDEFGHIJKLMNOPQRSTUVWXYZabcdefghijklmnopqrstuvwxyz**************************
**PARASOLID !"#$%&'()*+,-./:;<=>?@[\]^_`{|}~0123456789**************************
**PART1;
MC=unknown;
MC_MODEL=unknown;
MC_ID=unknown;
OS=Windows;
OS_RELEASE=unknown;
FRU=Parasolid Version 33.0, build 229, 11/16/2020;
APPL=ANSYS DesignModeler;
SITE=Canonsburg PA;
USER=unknown;
FORMAT=text;
GUISE=transmit;
KEY=frame;
FILE=frame.x_t;
DATE=07/18/25 18:00:12;
**PART2;
SCH=SCH_3300229_32001;
USFLD_SIZE=0;
**PART3;
**END_OF_HEADER*****************************************************************
T51 : TRANSMIT FILE created by modeller version 330022917 SCH_3000000_300000 176
 3 1 3 0 0 0 2 3 4 12 2 576 5 6 0 0 0 0 0 0 1e3 1e-8 0 7 3 1 0 1 1 8 9 10 11 0 0
 12 13 14 0 0 0 0 0 0 12 3 236 15 16 0 0 0 0 0 0 1e3 1e-8 0 2 17 1 0 1 1 18 19 2
0 0 0 0 21 22 0 0 0 0 0 0 0 12 4 381 23 24 0 0 0 0 0 0 1e3 1e-8 0 25 0 1 0 1 1 2
6 27 28 29 0 0 30 31 32 0 0 0 0 0 0 81 1 23 159 33 4 34 0 0 0 35 70 24 0 4 T4 0
 0 2 20 1 36 36 13 26 139 0 4 0 37 0 0 38 0 50 27 134 0 39 40 0 0 +-.142 -.00175
 -.0945 -867361737988404e-31 0 -1 -1 0 867361737988404e-31 31 28 329 0 41 42 0 0
 +-.162 75e-5 -.1145 0 -1 0 0 0 -1 .01865 29 29 110 0 43 44 0 -.142 75e-5 -.0945
 19 30 1 0 4 38 0 45 V0 16 31 117 46 ?47 0 48 49 0 0 4 18 32 15 50 51 0 52 53 ?4
 81 2 50 167 54 32 0 0 55 56 57 58 17 51 0 59 60 61 32 62 63 0 64 +18 52 10 65 6
1 32 66 67 ?4 29 53 17 0 32 67 68 -.142 -.00175 -.0945 29 67 12 0 52 69 53 -.142
 -.00175 -.1345 29 68 113 0 70 53 71 -.182 75e-5 -.0945 18 70 102 72 73 74 0 68
 ?4 29 71 112 0 74 68 44 -.182 75e-5 -.1345 18 74 100 75 76 77 70 71 ?4 29 44 11
1 0 77 71 29 -.142 75e-5 -.1345 18 77 98 78 79 43 74 44 ?4 81 2 78 162 54 77 0 0
 75 80 81 82 17 79 0 83 84 85 77 86 87 0 88 +18 43 96 80 89 90 77 29 ?4 81 2 80
 163 54 43 0 0 78 65 91 92 17 89 0 93 64 88 43 94 95 0 96 +18 90 2 55 97 66 43 9
8 ?4 81 2 55 166 54 90 0 0 99 50 100 101 17 97 0 102 47 103 90 104 105 0 60 -18
 66 5 99 104 52 90 69 ?4 29 98 4 0 90 0 69 -.182 -.00175 -.0945 29 69 7 0 66 98
 67 -.182 -.00175 -.1345 81 2 99 165 54 66 0 0 65 55 106 107 17 104 0 59 61 60 6
6 97 105 0 103 +15 59 27 0 60 108 0 17 61 0 59 51 104 52 109 110 0 84 +17 60 0 5
9 104 51 90 111 112 0 113 +16 105 6 114 ?104 110 112 115 0 0 4 17 103 0 102 97 7
6 66 85 48 0 109 -15 102 126 0 76 116 0 17 76 0 102 103 47 74 73 117 0 85 +17 85
 0 83 79 109 74 103 48 0 86 +16 48 116 118 ?85 31 119 120 0 0 4 17 109 0 83 85 8
4 66 61 110 0 0 -15 83 124 0 79 121 0 17 84 0 83 109 79 52 88 119 0 62 -16 110 1
1 122 ?61 63 105 123 0 0 4 81 2 122 24 54 110 0 0 114 124 125 126 16 63 16 124 ?
51 127 110 128 0 0 4 30 123 14 0 110 115 128 0 +-.182 -.00175 -.1345 1 0 0 30 11
5 9 0 105 129 123 0 +-.182 -.00175 -.0945 0 0 -1 30 128 19 0 63 123 130 0 +-.142
 -.00175 -.1345 0 0 1 30 130 22 0 112 128 131 0 +-.142 -.00175 -.0945 -1 0 86736
1737988404e-31 16 112 20 132 ?60 105 95 130 0 0 4 30 131 108 0 117 130 133 0 +-.
182 75e-5 -.0945 0 0 -1 16 117 90 134 ?76 87 135 131 0 0 4 30 133 107 0 87 131 1
36 0 +-.182 75e-5 -.1345 1 0 0 16 87 87 137 ?79 95 117 133 0 0 4 30 136 106 0 95
 133 138 0 +-.142 75e-5 -.1345 0 0 1 16 95 84 139 ?89 112 87 136 0 0 4 30 138 10
5 0 135 136 140 0 +-.142 75e-5 -.0945 -1 0 867361737988404e-31 16 135 93 141 ?14
2 117 143 138 0 0 4 30 140 135 0 144 138 145 0 +-.142 -.00175 -.0945 0 1 0 16 14
4 114 146 ?96 119 127 140 0 0 4 30 145 136 0 119 140 120 0 +-.142 -.00175 -.1345
 0 1 0 16 119 115 147 ?88 48 144 145 0 0 4 30 120 137 0 48 145 49 0 +-.182 -.001
75 -.1345 0 1 0 30 49 138 0 31 120 148 0 +-.182 -.00175 -.0945 0 1 0 31 148 178
 0 143 49 42 0 --.162 .0001432463402656278 -.1145 0 -1 0 0 0 -1 .01725 16 143 18
2 149 ?150 135 151 148 0 0 4 31 42 323 0 152 148 28 0 +-.162 .000143246340265627
8 -.1145 0 -1 0 0 0 -1 .01825 16 152 336 153 ?154 41 155 42 0 0 4 81 2 153 380 5
4 152 0 0 156 157 158 159 17 154 0 160 154 154 0 161 152 0 0 +16 41 335 157 ?162
 163 152 28 0 0 4 16 155 339 164 ?165 152 166 167 0 0 4 81 2 164 340 54 155 0 0
 168 169 170 171 17 165 0 172 165 165 0 173 155 0 0 +16 166 333 168 ?174 155 0 1
75 0 0 4 31 167 376 0 155 0 175 0 +-.162 1e-4 -.1145 0 1 0 0 0 1 .01825 31 175 3
75 0 166 167 176 0 +-.162 1e-4 -.1145 0 1 0 0 0 1 .01865 31 176 298 0 163 175 17
7 0 +-.162 .0003644514488803825 -.1145 0 1 0 0 0 1 .0179806995701206 16 163 208
 178 ?179 180 41 176 0 0 4 31 177 297 0 180 176 181 0 +-.162 .000143246340265627
8 -.1145 0 1 0 0 0 1 .0179417899212418 16 180 206 182 ?183 184 163 177 0 0 4 31
 181 291 0 184 177 185 0 +-.162 .0001432463402656278 -.1145 0 1 0 0 0 1 .0174430
424106323 16 184 192 186 ?187 188 180 181 0 0 4 31 185 290 0 188 181 189 0 +-.16
2 .000361392521127541 -.1145 0 1 0 0 0 1 .01740467668462725 16 188 190 190 ?191
 192 184 185 0 0 4 31 189 289 0 192 185 193 0 +-.162 .000664451448880382 -.1145
 0 1 0 0 0 1 .01740467668462725 16 192 188 194 ?195 151 188 189 0 0 4 31 193 288
 0 151 189 129 0 +-.162 .000664451448880382 -.1145 0 1 0 0 0 1 .0179806995701206
 16 151 186 56 ?196 143 192 193 0 0 4 31 129 57 0 127 193 115 0 +-.162 -.00175 -
.1145 0 1 0 0 0 1 .01725 16 127 36 197 ?198 144 63 129 0 0 4 81 2 197 58 54 127
 0 0 132 139 199 200 17 198 0 201 198 198 0 202 127 0 0 +15 201 37 0 198 108 59
 17 202 0 203 202 202 0 198 127 0 0 -15 203 118 0 202 204 0 14 204 119 205 ?206
 121 207 26 208 -0 0 206 121 45 81 2 205 150 54 204 0 0 209 210 211 212 14 206 1
23 209 ?108 204 93 26 213 -0 0 108 204 45 14 121 125 210 ?204 116 83 26 214 -0 0
 204 116 45 15 207 176 0 150 204 203 51 208 130 0 204 215 213 0 +-.162 -.00175 -
.1145 0 1 0 .01725 0 0 1 13 45 3 0 0 0 0 0 0 30 37 14 37 324 216 ?39 0 217 26 21
8 -0 0 39 0 45 81 2 216 325 54 37 0 0 149 168 219 220 14 39 129 221 ?116 37 222
 26 27 -0 0 116 37 45 15 217 260 0 223 37 224 50 218 284 0 37 225 226 0 +-.16325
13784262395 .0001432463402656278 -.1328980970388562 0 -1 0 0 0 -1 124 225 285 0
 227 228 218 0 +229 230 50 226 278 0 231 218 232 0 +-.1632513784262395 .00014324
63402656278 -.1318980970388562 0 -1 0 0 0 -1 14 231 210 233 ?234 235 236 26 226
 -0 0 234 235 45 124 232 277 0 237 226 238 0 +239 240 14 237 230 241 ?227 242 24
3 26 232 +0 0 227 242 45 51 238 276 0 242 232 244 0 --.162 .01 -.1145 0 1 0 .017
40467668462725 0 0 1 126 239 FT1 3 2 7 5 5 2 3 TFT8 4 245 246 247 248 249 125 24
0 0 1 0 1 0 1 0 1 2 BBPPBBPP????0 0 0 0 45 56 245 -.1632513784262395 .0001432463
402656278 -.1318980970388562 1 -.0660158575013174 477487800885426e-19 -.04313178
00621258 .3333333333333335 -.0651816052171577 477487800885426e-19 -.031533048702
88825 .3333333333333335 -.1607486215737605 .0001432463402656278 -.09710190296114
37 1 -.04198414249868265 477487800885426e-19 -.03320155327120755 .33333333333333
35 -.0428183947828423 477487800885426e-19 -.04480028463044505 .3333333333333335
 -.1632513784262395 .0001432463402656278 -.1318980970388562 1 -.1632513784262395
 .0003613925211275425 -.1318596319814318 1 -.065990214129701 .000120464173709180
8 -.04311895837631765 .3333333333333335 -.0651559618455414 .0001204641737091808
 -.0315458703886964 .3333333333333335 -.1607486215737605 .0003613925211275425 -.
0971403680185682 1 -.042009785870299 .0001204641737091808 -.0332143749570157 .33
33333333333335 -.0428440381544586 .0001204641737091808 -.0447874629446369 .33333
33333333335 -.1632513784262395 .0003613925211275425 -.1318596319814318 1 127 2 2
46 2 2 127 3 247 4 3 4 128 2 248 0 1 128 3 249 0 .5 1 14 242 226 250 ?237 251 25
2 26 238 +0 0 237 251 45 50 244 275 0 251 238 253 0 +-.1632513784262395 .0006644
51448880382 -.1324371014677756 0 -1 0 0 0 -1 14 251 222 254 ?242 234 255 26 244
 -0 0 242 234 45 51 253 274 0 234 244 256 0 --.162 .01 -.1145 0 1 0 .01798069957
01206 0 0 1 14 234 218 257 ?251 231 258 26 253 -0 0 251 231 45 50 256 29 0 108 2
53 215 0 +-.162 -.00175 -.1145 0 -1 0 0 0 -1 14 108 28 259 ?235 206 201 26 256 +
0 0 235 206 45 50 215 104 0 235 256 208 0 +-.162 75e-5 -.1145 0 -1 0 0 0 -1 14 2
35 77 260 ?231 108 261 26 215 -0 0 231 108 45 81 2 260 147 54 235 0 0 141 259 26
2 263 15 261 327 0 162 235 264 17 162 0 261 162 162 0 265 41 0 0 +15 264 80 0 26
6 235 0 17 266 0 264 94 73 43 142 135 0 0 -17 94 0 264 86 266 77 89 95 0 0 -17 7
3 0 264 266 86 70 76 117 0 47 -17 142 0 222 113 96 70 266 135 0 0 +15 222 128 0
 142 39 0 17 113 0 222 111 142 90 47 31 0 0 -17 96 0 222 142 111 43 64 144 0 266
 +17 111 0 222 96 113 32 60 112 0 0 -17 64 0 93 62 89 32 96 144 0 111 -15 93 122
 0 89 206 0 17 62 0 93 88 64 52 51 63 0 0 -17 88 0 93 89 62 77 84 119 0 94 +17 4
7 0 102 76 97 70 113 31 0 142 +17 86 0 264 73 94 74 79 87 0 0 -17 265 0 267 265
 265 0 162 41 0 0 -15 267 346 0 265 268 0 14 268 343 169 ?269 227 270 26 228 -0
 0 269 227 45 81 2 169 344 54 268 0 0 164 271 272 273 14 269 347 271 ?274 268 17
2 26 275 +0 0 274 268 45 14 227 262 276 ?268 237 277 26 225 -0 0 268 237 45 15 2
70 345 0 278 268 267 51 228 369 0 268 275 225 0 +-.162 1e-4 -.1145 0 1 0 .01865
 0 0 1 51 275 370 0 269 279 228 0 +-.162 1e-4 -.1145 0 1 0 .01825 0 0 1 50 279 3
72 0 274 0 275 0 +-.162 1e-4 -.1145 0 1 0 0 0 1 14 274 359 156 ?0 269 280 26 279
 +0 0 0 269 45 81 2 156 360 54 274 0 0 271 153 281 282 15 280 361 0 173 274 283
 17 173 0 280 173 173 0 165 155 0 0 -15 283 362 0 174 274 0 17 174 0 283 174 174
 0 278 166 0 0 +17 278 0 270 278 278 0 174 166 0 0 -80 2 54 284 285 9000 0 0 0 0
 3 6 0 0 0 FFTFTFTTTFFFTF3 1 81 2 271 348 54 269 0 0 169 156 286 287 84 14 281 F
4829.c(X4813)82 1 282 4830 84 14 286 F4829.c(X4801)82 1 287 4831 79 18 285 Ansys
ParaAttrDef.381 2 276 263 54 227 0 0 241 149 288 289 15 277 264 0 290 227 291 17
 290 0 277 290 290 0 179 163 0 0 -15 291 265 0 183 227 0 17 183 0 291 183 183 0
 223 180 0 0 +17 223 0 217 223 223 0 183 180 0 0 -17 179 0 292 179 179 0 290 163
 0 0 +15 292 221 0 179 234 0 81 2 241 231 54 237 0 0 250 276 293 294 81 2 149 31
9 54 143 0 0 276 216 295 296 84 14 288 F4771.c(X3519)82 1 289 4777 84 33 295 F47
11.F4677.E4755..F4771.c(X3526)82 1 296 4788 81 2 250 227 54 242 0 0 254 241 297
 298 84 14 293 F4771.c(X3527)82 1 294 4775 81 2 254 223 54 251 0 0 257 250 299 3
00 84 14 297 F4771.c(X3528)82 1 298 4774 81 2 257 219 54 234 0 0 233 254 301 302
 84 14 299 F4771.c(X3529)82 1 300 4773 81 2 233 211 54 231 0 0 178 257 303 304 8
4 14 301 F4771.c(X3530)82 1 302 4772 81 2 178 209 54 163 0 0 182 233 305 306 84
 14 303 F4771.c(X3526)82 1 304 4779 81 2 182 207 54 180 0 0 186 178 307 308 84 1
4 305 F4771.c(X3531)82 1 306 4786 81 2 186 193 54 184 0 0 190 182 309 310 84 14
 307 F4771.c(X3532)82 1 308 4785 81 2 190 191 54 188 0 0 194 186 311 312 84 14 3
09 F4771.c(X3539)82 1 310 4783 81 2 194 189 54 192 0 0 56 190 313 314 84 14 311
 F4771.c(X3540)82 1 312 4782 81 2 56 187 54 151 0 0 50 194 315 316 84 14 313 F47
71.c(X3541)82 1 314 4781 84 14 315 F4771.c(X3542)82 1 316 4780 15 172 349 0 165
 269 160 15 160 350 0 154 269 0 84 14 272 F4829.c(X4815)82 1 273 4832 81 2 141 9
5 54 135 0 0 134 260 317 318 81 2 259 148 54 108 0 0 260 209 319 320 84 11 262 F
4711.Cap1b82 1 263 4715 81 2 209 149 54 206 0 0 259 205 321 322 84 11 319 F4711.
Cap1t82 1 320 4714 84 17 321 F4711.F4677.E468882 1 322 4716 81 2 134 92 54 117 0
 0 137 141 323 324 84 30 317 F4711.Cap1b..F4711.F4677.E469382 1 318 4725 81 2 13
7 89 54 87 0 0 139 134 325 326 84 30 323 F4711.Cap1b..F4711.F4677.E467882 1 324
 4726 81 2 139 86 54 95 0 0 197 137 327 328 84 30 325 F4711.Cap1b..F4711.F4677.E
468382 1 326 4727 84 30 327 F4711.Cap1b..F4711.F4677.E468882 1 328 4724 15 258 2
20 0 329 234 292 17 329 0 258 329 329 0 196 151 0 0 -17 196 0 330 196 196 0 329
 151 0 0 +15 330 225 0 196 251 0 15 255 224 0 331 251 330 17 331 0 255 331 331 0
 195 192 0 0 -17 195 0 252 195 195 0 331 192 0 0 +15 252 228 0 195 242 332 15 33
2 229 0 333 242 0 17 333 0 332 333 333 0 191 188 0 0 -17 191 0 243 191 191 0 333
 188 0 0 +15 243 232 0 191 237 334 15 334 233 0 335 237 0 17 335 0 334 335 335 0
 187 184 0 0 -17 187 0 236 187 187 0 335 184 0 0 +15 236 212 0 187 231 336 15 33
6 213 0 337 231 0 17 337 0 336 337 337 0 150 143 0 0 -17 150 0 207 150 150 0 337
 143 0 0 +126 229 FT1 3 2 7 5 5 2 3 TFT8 4 338 339 340 341 342 125 230 0 1 0 1 0
 1 0 1 2 BBPPBBPP????0 0 0 0 45 56 338 -.1632513784262395 .0001432463402656278 -
.1323980970388562 1 -.0663491908346507 477487800885426e-19 -.04329844672879245 .
3333333333333335 -.065514938550491 477487800885426e-19 -.0313663820362216 .33333
33333333335 -.1607486215737605 .0001432463402656278 -.0966019029611437 1 -.04165
080916534935 477487800885426e-19 -.0330348866045409 .3333333333333335 -.04248506
1449509 477487800885426e-19 -.04496695129711175 .3333333333333335 -.163251378426
2395 .0001432463402656278 -.1323980970388562 1 -.1632513784262395 .0003644514488
803815 -.1324371014677756 1 -.0663751937872636 .0001214838162934604 -.0433114482
050989 .3333333333333335 -.0655409415031039 .0001214838162934604 -.0313533805599
1515 .3333333333333335 -.1607486215737605 .0003644514488803815 -.096562898532224
4 1 -.04162480621273645 .0001214838162934604 -.03302188512823445 .33333333333333
35 -.0424590584968961 .0001214838162934604 -.04497995277341815 .3333333333333335
 -.1632513784262395 .0003644514488803815 -.1324371014677756 1 127 2 339 2 2 127
 3 340 4 3 4 128 2 341 0 1 128 3 342 0 .5 1 15 224 322 0 161 37 0 17 161 0 224 1
61 161 0 154 152 0 0 -81 2 221 153 54 39 0 0 343 46 344 345 14 116 127 343 ?121
 39 102 26 40 -0 0 121 39 45 81 2 343 152 54 116 0 0 210 221 346 347 50 40 133 0
 116 214 27 0 +-.182 -.00175 -.0945 1 0 0 0 0 -1 50 214 132 0 121 213 40 0 +-.18
2 -.00175 -.1345 0 0 1 1 0 0 50 213 131 0 206 208 214 0 +-.142 -.00175 -.1345 -1
 0 0 0 0 1 81 2 210 151 54 121 0 0 205 343 348 349 84 17 346 F4711.F4677.E467882
 1 347 4718 84 17 348 F4711.F4677.E468382 1 349 4717 81 2 46 154 54 31 0 0 221 1
18 350 351 84 17 344 F4711.F4677.E469382 1 345 4719 81 2 118 155 54 48 0 0 46 14
7 352 353 84 36 350 F4711.F4677.E4678..F4711.F4677.E469382 1 351 4731 81 2 147 1
56 54 119 0 0 118 146 354 355 84 36 352 F4711.F4677.E4683..F4711.F4677.E467882 1
 353 4730 81 2 146 157 54 144 0 0 147 34 356 357 84 36 354 F4711.F4677.E4688..F4
711.F4677.E468382 1 355 4729 81 2 34 158 54 4 0 23 146 72 358 0 84 36 356 F4711.
F4677.E4688..F4711.F4677.E469382 1 357 4728 81 2 72 160 54 70 0 0 34 75 359 360
 84 7 358 F4711.B81 2 75 161 54 74 0 0 72 78 361 362 84 10 359 F4711.Vtx182 1 36
0 4739 84 10 361 F4711.Vtx282 1 362 4738 81 2 168 334 54 166 0 0 216 164 363 364
 84 14 219 F4771.c(X3520)82 1 220 4776 84 14 363 F4829.c(X4817)82 1 364 4834 84
 17 211 F4711.F4677.E475582 1 212 4761 81 2 132 26 54 112 0 0 124 197 365 366 84
 30 199 F4711.Cap1t..F4711.F4677.E475582 1 200 4762 81 2 124 25 54 63 0 0 122 13
2 367 368 84 30 365 F4711.Cap1t..F4711.F4677.E469382 1 366 4721 84 30 367 F4711.
Cap1t..F4711.F4677.E468882 1 368 4720 84 14 170 F4829.c(X4816)82 1 171 4833 81 2
 157 381 54 41 0 0 153 0 369 370 84 27 369 F4711.Cap1b..F4829.c(X4815)82 1 370 4
836 84 30 158 F4771.c(X3520)..F4829.c(X4801)82 1 159 4835 81 2 114 23 54 105 0 0
 0 122 371 372 84 30 125 F4711.Cap1t..F4711.F4677.E468382 1 126 4723 84 30 371 F
4711.Cap1t..F4711.F4677.E467882 1 372 4722 81 2 65 164 54 52 0 0 80 99 373 374 8
4 10 106 F4711.Vtx682 1 107 4734 84 10 373 F4711.Vtx582 1 374 4733 84 10 100 F47
11.Vtx782 1 101 4735 84 10 91 F4711.Vtx482 1 92 4736 84 10 81 F4711.Vtx382 1 82
 4737 84 10 57 F4711.Vtx882 1 58 4732 19 38 140 0 4 0 30 26 S0 74 20 36 2 0 0 15
7 23 0 0 0 0 0 0 0 0 0 0 0 0 0 0 0 0 0 0 80 1 33 375 376 9000 0 0 0 0 3 6 0 0 0
 FFTFFFFFTFFFFF1 82 1 35 108 79 13 376 BodyAttrDef.481 1 15 205 33 3 377 0 0 0 3
78 70 16 0 4 T3 0 0 3 20 1 379 379 13 18 3 0 3 0 380 0 0 381 0 52 19 232 382 383
 384 0 0 --.162 .002548259591466445 -.1145 0 1 0 .01614855869623235 .99243540539
4871 .1227679360367284 0 0 1 31 20 216 0 22 385 0 0 --.162 .00261887089255142 -.
1145 0 1 0 0 0 1 .01671936861191555 19 21 82 0 3 381 0 386 V0 16 22 213 387 ?388
 0 389 20 0 0 3 81 2 387 235 54 22 0 0 390 391 392 393 17 388 0 394 388 388 0 39
5 22 0 0 +16 389 207 391 ?396 22 397 385 0 0 3 81 2 391 236 54 389 0 0 387 0 398
 399 17 396 0 400 396 396 0 401 389 0 0 +16 397 136 402 ?403 389 404 405 0 0 3 3
1 385 210 0 389 405 20 0 +-.162 .00254825959146643 -.1145 0 1 0 0 0 1 .016148558
69623225 31 405 167 0 397 406 385 0 +-.162 .000664451448880382 -.1145 0 1 0 0 0
 1 .0179806995701206 31 406 166 0 404 407 405 0 +-.162 .000664451448880382 -.114
5 0 1 0 0 0 1 .01740467668462725 16 404 131 408 ?409 397 410 406 0 0 3 31 407 16
5 0 410 411 406 0 +-.162 .000361392521127541 -.1145 0 1 0 0 0 1 .017404676684627
25 16 410 126 412 ?413 404 414 407 0 0 3 31 411 164 0 414 415 407 0 +-.162 .0001
432463402656278 -.1145 0 1 0 0 0 1 .0174430424106323 16 414 121 416 ?417 410 418
 411 0 0 3 31 415 163 0 418 419 411 0 +-.162 .0001432463402656278 -.1145 0 1 0 0
 0 1 .01694436872533945 16 418 116 420 ?421 414 422 415 0 0 3 31 419 162 0 422 4
23 415 0 +-.162 .001551902961143725 -.1145 0 1 0 0 0 1 .01694436872533945 16 422
 111 424 ?425 418 426 419 0 0 3 31 423 161 0 426 427 419 0 +-.162 .00235 -.1145
 0 1 0 0 0 1 .01614855869623225 16 426 106 428 ?429 422 430 423 0 0 3 31 427 159
 0 430 431 423 0 +-.162 .000893246340265629 -.1145 0 1 0 0 0 1 .0184406052670955
 16 430 96 432 ?433 426 434 427 0 0 3 31 431 158 0 434 435 427 0 +-.162 .0001432
463402656278 -.1145 0 1 0 0 0 1 .0184406052670955 16 434 91 436 ?437 430 438 431
 0 0 3 31 435 157 0 438 439 431 0 +-.162 .0001432463402656278 -.1145 0 1 0 0 0 1
 .0179417899212418 16 438 86 440 ?441 434 442 435 0 0 3 31 439 156 0 442 0 435 0
 +-.162 .0003644514488803825 -.1145 0 1 0 0 0 1 .0179806995701206 16 442 84 443
 ?444 438 0 439 0 0 3 81 2 443 191 54 442 0 0 440 377 445 446 17 444 0 447 444 4
44 0 448 442 0 0 +15 447 193 0 444 449 450 17 448 0 451 448 448 0 444 442 0 0 -1
5 451 141 0 448 380 0 14 380 142 452 ?453 0 454 18 384 +0 0 453 0 386 81 2 452 1
79 54 380 0 0 455 402 456 457 14 453 139 455 ?458 380 459 18 460 +0 0 458 380 38
6 15 454 204 0 403 380 451 51 384 155 0 380 460 19 0 --.162 .01 -.1145 0 1 0 .01
79806995701206 0 0 1 13 386 81 0 0 0 0 0 0 21 380 50 460 154 0 453 461 384 0 +-.
1632513784262395 .000664451448880382 -.1324371014677756 0 -1 0 0 0 -1 51 461 153
 0 458 462 460 0 --.162 .01 -.1145 0 1 0 .01740467668462725 0 0 1 14 458 134 463
 ?464 453 465 18 461 -0 0 464 453 386 124 462 152 0 464 466 461 0 +467 468 14 46
4 129 469 ?470 458 471 18 462 -0 0 470 458 386 50 466 151 0 470 472 462 0 +-.163
2513784262395 .0001432463402656278 -.1318980970388562 0 -1 0 0 0 -1 126 467 FT1
 3 2 7 5 5 2 3 TFT8 4 473 474 475 476 477 125 468 0 1 0 1 0 1 0 1 2 BBPPBBPP????
0 0 0 0 45 56 473 -.1632513784262395 .0001432463402656278 -.1318980970388562 1 -
.0660158575013174 477487800885426e-19 -.0431317800621258 .3333333333333335 -.065
1816052171577 477487800885426e-19 -.03153304870288825 .3333333333333335 -.160748
6215737605 .0001432463402656278 -.0971019029611437 1 -.04198414249868265 4774878
00885426e-19 -.03320155327120755 .3333333333333335 -.0428183947828423 4774878008
85426e-19 -.04480028463044505 .3333333333333335 -.1632513784262395 .000143246340
2656278 -.1318980970388562 1 -.1632513784262395 .0003613925211275425 -.131859631
9814318 1 -.065990214129701 .0001204641737091808 -.04311895837631765 .3333333333
333335 -.0651559618455414 .0001204641737091808 -.0315458703886964 .3333333333333
335 -.1607486215737605 .0003613925211275425 -.0971403680185682 1 -.0420097858702
99 .0001204641737091808 -.0332143749570157 .3333333333333335 -.0428440381544586
 .0001204641737091808 -.0447874629446369 .3333333333333335 -.1632513784262395 .0
003613925211275425 -.1318596319814318 1 127 2 474 2 2 127 3 475 4 3 4 128 2 476
 0 1 128 3 477 0 .5 1 14 470 124 478 ?479 464 480 18 466 +0 0 479 464 386 51 472
 150 0 479 481 466 0 --.162 .01 -.1145 0 1 0 .01694436872533945 0 0 1 14 479 119
 482 ?483 470 484 18 472 +0 0 483 470 386 124 481 149 0 483 485 472 0 +486 487 1
4 483 114 488 ?489 479 490 18 481 -0 0 489 479 386 51 485 148 0 489 491 481 0 --
.162 .01 -.1145 0 1 0 .01614855869623225 0 0 1 126 486 FT1 3 2 7 5 5 2 3 TFT8 4
 492 493 494 495 496 125 487 0 1 0 1 0 1 0 1 2 BBPPBBPP????0 0 0 0 45 56 492 -.1
632513784262395 .00235 -.1306 1 -.0651504594754132 .000783333333333333 -.0426990
810491737 .3333333333333335 -.0643162071912535 .000783333333333333 -.03196574771
584035 .3333333333333335 -.1607486215737605 .00235 -.0984 1 -.04284954052458685
 .000783333333333333 -.03363425228415965 .3333333333333335 -.0436837928087465 .0
00783333333333333 -.04436758561749295 .3333333333333335 -.1632513784262395 .0023
5 -.1306 1 -.1632513784262395 .001551902961143725 -.1313980970388562 1 -.0656825
24167984 .000517300987047908 -.0429651133954591 .3333333333333335 -.064848271883
8244 .000517300987047908 -.03169971536955495 .3333333333333335 -.160748621573760
5 .001551902961143725 -.0976019029611437 1 -.042317475832016 .000517300987047908
 -.0333682199378742 .3333333333333335 -.04315172811617565 .000517300987047908 -.
0446336179637784 .3333333333333335 -.1632513784262395 .001551902961143725 -.1313
980970388562 1 127 2 493 2 2 127 3 494 4 3 4 128 2 495 0 1 128 3 496 0 .5 1 14 4
89 109 497 ?498 483 400 18 485 +0 0 498 483 386 124 491 147 0 498 499 485 0 +500
 501 14 498 104 502 ?503 489 394 18 491 +0 0 503 489 386 51 499 146 0 503 504 49
1 0 +-.162 .01 -.1145 0 1 0 .0184406052670955 0 0 1 126 500 FT1 3 2 7 5 5 2 3 TF
T8 4 505 506 507 508 509 125 501 0 1 0 1 0 1 0 1 2 BBPPBBPP????0 0 0 0 45 56 505
 -.1632513784262395 .00319134337912191 -.1306 1 -.0651504594754132 .001063781126
37397 -.0426990810491737 .3333333333333335 -.0643162071912535 .00106378112637397
 -.03196574771584035 .3333333333333335 -.1607486215737605 .00319134337912191 -.0
984 1 -.04284954052458685 .00106378112637397 -.03363425228415965 .33333333333333
35 -.0436837928087465 .00106378112637397 -.04436758561749295 .3333333333333335 -
.1632513784262395 .00319134337912191 -.1306 1 -.1632513784262395 .00089324634026
5626 -.1328980970388562 1 -.066682524167984 .000297748780088542 -.04346511339545
91 .3333333333333335 -.0658482718838244 .000297748780088542 -.03119971536955495
 .3333333333333335 -.1607486215737605 .000893246340265626 -.0961019029611437 1 -
.041317475832016 .000297748780088542 -.0328682199378742 .3333333333333335 -.0421
5172811617565 .000297748780088542 -.0451336179637784 .3333333333333335 -.1632513
784262395 .000893246340265626 -.1328980970388562 1 127 2 506 2 2 127 3 507 4 3 4
 128 2 508 0 1 128 3 509 0 .5 1 14 503 99 510 ?511 498 512 18 499 +0 0 511 498 3
86 50 504 145 0 511 513 499 0 +-.1632513784262395 .0001432463402656278 -.1328980
970388562 0 -1 0 0 0 -1 14 511 94 514 ?449 503 515 18 504 +0 0 449 503 386 124 5
13 144 0 449 0 504 0 +516 517 14 449 89 518 ?383 511 447 18 513 +0 0 383 511 386
 126 516 FT1 3 2 7 5 5 2 3 TFT8 4 519 520 521 522 523 125 517 0 1 0 1 0 1 0 1 2
 BBPPBBPP????0 0 0 0 45 56 519 -.1632513784262395 .0001432463402656278 -.1323980
970388562 1 -.0663491908346507 477487800885426e-19 -.04329844672879245 .33333333
33333335 -.065514938550491 477487800885426e-19 -.0313663820362216 .3333333333333
335 -.1607486215737605 .0001432463402656278 -.0966019029611437 1 -.0416508091653
4935 477487800885426e-19 -.0330348866045409 .3333333333333335 -.042485061449509
 477487800885426e-19 -.04496695129711175 .3333333333333335 -.1632513784262395 .0
001432463402656278 -.1323980970388562 1 -.1632513784262395 .0003644514488803815
 -.1324371014677756 1 -.0663751937872636 .0001214838162934604 -.0433114482050989
 .3333333333333335 -.0655409415031039 .0001214838162934604 -.03135338055991515 .
3333333333333335 -.1607486215737605 .0003644514488803815 -.0965628985322244 1 -.
04162480621273645 .0001214838162934604 -.03302188512823445 .3333333333333335 -.0
424590584968961 .0001214838162934604 -.04497995277341815 .3333333333333335 -.163
2513784262395 .0003644514488803815 -.1324371014677756 1 127 2 520 2 2 127 3 521
 4 3 4 128 2 522 0 1 128 3 523 0 .5 1 81 2 518 168 54 449 0 0 0 514 524 525 14 3
83 225 390 ?0 449 526 18 19 +0 0 0 449 386 81 2 390 234 54 383 0 0 377 387 527 5
28 15 526 226 0 395 383 529 17 395 0 526 395 395 0 388 22 0 0 -15 529 227 0 401
 383 0 17 401 0 529 401 401 0 396 389 0 0 -81 2 377 192 54 3 0 15 443 390 530 0
 84 14 527 F3657.c(X3535)82 1 528 3658 84 7 530 F3516.B81 2 514 169 54 511 0 0 5
18 510 531 532 84 17 524 F3516.F3375.E341382 1 525 3519 81 2 510 170 54 503 0 0
 514 502 533 534 84 17 531 F3516.F3375.E340682 1 532 3520 81 2 502 171 54 498 0
 0 510 497 535 536 84 17 533 F3516.F3375.E339782 1 534 3521 81 2 497 172 54 489
 0 0 502 488 537 538 84 17 535 F3516.F3375.E339082 1 536 3522 81 2 488 173 54 48
3 0 0 497 482 539 540 84 17 537 F3516.F3375.E337982 1 538 3523 81 2 482 174 54 4
79 0 0 488 478 541 542 84 17 539 F3516.F3375.E349482 1 540 3524 81 2 478 175 54
 470 0 0 482 469 543 544 84 17 541 F3516.F3375.E350182 1 542 3525 81 2 469 176 5
4 464 0 0 478 463 545 546 84 17 543 F3516.F3375.E344682 1 544 3526 81 2 463 177
 54 458 0 0 469 455 547 548 84 17 545 F3516.F3375.E345382 1 546 3527 81 2 455 17
8 54 453 0 0 463 452 549 550 84 17 547 F3516.F3375.E347782 1 548 3528 84 17 549
 F3516.F3375.E348582 1 550 3529 15 515 194 0 441 511 551 17 441 0 515 441 441 0
 552 438 0 0 +15 551 93 0 553 511 0 17 553 0 551 553 553 0 437 434 0 0 -17 437 0
 512 437 437 0 553 434 0 0 +15 512 195 0 437 503 554 15 554 98 0 555 503 0 17 55
5 0 554 555 555 0 433 430 0 0 -17 433 0 556 433 433 0 555 430 0 0 +15 556 196 0
 433 498 0 17 552 0 450 552 552 0 441 438 0 0 -15 450 88 0 552 449 0 15 394 214
 0 388 498 556 15 400 208 0 396 489 557 15 557 108 0 558 489 0 17 558 0 557 558
 558 0 429 426 0 0 -17 429 0 559 429 429 0 558 426 0 0 +15 559 113 0 429 483 0 1
5 490 198 0 560 483 559 17 560 0 490 560 560 0 425 422 0 0 -17 425 0 484 425 425
 0 560 422 0 0 +15 484 199 0 425 479 561 15 561 118 0 562 479 0 17 562 0 561 562
 562 0 421 418 0 0 -17 421 0 480 421 421 0 562 418 0 0 +15 480 200 0 421 470 563
 15 563 123 0 564 470 0 17 564 0 563 564 564 0 417 414 0 0 -17 417 0 565 417 417
 0 564 414 0 0 +15 565 128 0 417 464 0 15 471 201 0 566 464 565 17 566 0 471 566
 566 0 413 410 0 0 -17 413 0 567 413 413 0 566 410 0 0 +15 567 133 0 413 458 0 1
5 465 202 0 568 458 567 17 568 0 465 568 568 0 409 404 0 0 -17 409 0 459 409 409
 0 568 404 0 0 +15 459 203 0 409 453 569 15 569 138 0 570 453 0 17 570 0 569 570
 570 0 403 397 0 0 -17 403 0 454 403 403 0 570 397 0 0 +81 2 402 180 54 397 0 0
 452 408 571 572 84 17 456 F3516.F3375.E341982 1 457 3530 81 2 408 181 54 404 0
 0 402 412 573 574 84 36 571 F3516.F3375.E3485..F3516.F3375.E341982 1 572 3542 8
1 2 412 182 54 410 0 0 408 416 575 576 84 36 573 F3516.F3375.E3477..F3516.F3375.
E348582 1 574 3541 81 2 416 183 54 414 0 0 412 420 577 578 84 36 575 F3516.F3375
.E3453..F3516.F3375.E347782 1 576 3540 81 2 420 184 54 418 0 0 416 424 579 580 8
4 36 577 F3516.F3375.E3446..F3516.F3375.E345382 1 578 3539 81 2 424 185 54 422 0
 0 420 428 581 582 84 36 579 F3516.F3375.E3501..F3516.F3375.E344682 1 580 3538 8
1 2 428 186 54 426 0 0 424 432 583 584 84 36 581 F3516.F3375.E3494..F3516.F3375.
E350182 1 582 3537 81 2 432 188 54 430 0 0 428 436 585 586 84 36 583 F3516.F3375
.E3379..F3516.F3375.E349482 1 584 3536 81 2 436 189 54 434 0 0 432 440 587 588 8
4 36 585 F3516.F3375.E3397..F3516.F3375.E339082 1 586 3534 81 2 440 190 54 438 0
 0 436 443 589 590 84 36 587 F3516.F3375.E3406..F3516.F3375.E339782 1 588 3533 8
4 36 589 F3516.F3375.E3413..F3516.F3375.E340682 1 590 3532 84 36 445 F3516.F3375
.E3413..F3516.F3375.E341982 1 446 3531 84 33 398 F3516.F3375.E3379..F3657.c(X353
5)82 1 399 3662 84 33 392 F3516.F3375.E3390..F3657.c(X3535)82 1 393 3660 19 381
 1 0 3 0 21 18 S0 81 2 382 233 591 19 0 0 0 0 592 593 80 2 591 594 595 8044 0 0
 0 0 3 5 0 0 0 FFFFTFFFTTFFFF3 2 84 6 592 BACAAB83 4 593 0 706113010849776e-19 5
e-4 1e-4 79 17 595 SDL/TYSA_BLEND_ID74 20 379 3 0 0 391 15 382 0 0 0 0 0 0 0 0 0
 0 0 0 0 0 0 0 0 82 1 378 76 81 1 5 360 33 2 596 0 0 0 597 70 6 0 4 T2 0 0 7 20
 1 598 598 13 8 343 0 2 0 599 0 0 600 0 52 9 572 601 602 603 0 0 +-.162 .01 -.11
45 0 -1 0 .0155 .707106781186538 .707106781186557 0 0 -1 31 10 556 0 13 604 0 0
 --.162 .0095 -.1145 0 1 0 0 0 1 .016 29 11 255 0 14 605 0 -.16311959892949 .003
77158241874359 -.117828918678163 19 12 345 0 2 600 0 606 V0 16 13 553 607 ?608 0
 609 10 0 0 2 18 14 202 610 611 0 612 11 ?2 81 2 610 278 54 14 613 0 614 615 616
 617 17 611 0 618 619 619 14 620 621 0 622 +18 612 198 615 623 14 624 605 ?2 81
 2 615 279 54 612 625 0 610 626 627 628 17 623 0 629 630 620 612 631 632 0 633 +
18 624 194 626 619 612 0 634 ?2 29 605 256 0 612 634 11 -.16311959892949 .003882
92359270804 -.114682918678163 29 634 257 0 624 0 605 -.16311959892949 .003771582
41874359 -.111536918678163 81 2 626 280 54 624 635 0 615 636 637 638 17 619 0 61
8 611 611 624 622 639 0 620 +15 618 208 0 611 640 641 17 622 0 642 633 631 14 61
9 639 0 630 -16 639 164 643 ?619 644 645 646 621 621 2 17 620 0 629 623 630 624
 611 621 0 631 -15 629 241 0 620 647 0 17 630 0 629 620 623 14 633 645 0 0 -16 6
21 173 648 ?611 632 649 646 639 639 2 17 631 0 642 622 633 624 623 632 0 0 -15 6
42 234 0 633 599 0 17 633 0 642 631 622 612 630 645 0 0 +16 632 168 650 ?623 645
 621 651 0 0 2 81 2 650 169 54 632 652 0 643 648 653 654 16 645 177 655 ?633 639
 632 656 0 0 2 134 651 250 0 632 646 656 0 +657 658 31 646 251 0 639 659 651 0 +
-.16311959892949 .00377158241875461 -.114682918678163 612323399573677e-31 1 0 -1
 612323399573677e-31 0 .003146000000011 134 656 249 0 645 651 660 0 +661 662 136
 657 3 8 3 6 6 FFF1 663 664 665 135 658 2 0 45 24 663 -.16311959892949 .00377158
241875461 -.111536918678152 -.16311959892949 .003865919553696475 -.1115369186781
52 -.16311959892949 .00388548644782303 -.1116059311901746 -.16311959892949 .0039
40325193535275 -.1118123708336672 -.16311959892949 .003914084426726585 -.1125855
634111586 -.16311959892949 .00388480579236424 -.1139019379212962 -.1631195989294
9 .00388292359271903 -.11444477098422 -.16311959892949 .00388292359271903 -.1146
82918678163 127 6 664 4 1 1 1 1 4 128 6 665 0 .0492704296271724 .056204890700511
1 .439452951845943 .786743420057069 1 31 660 518 0 644 656 666 0 --.162 .0015 -.
1145 0 1 0 0 0 1 .01675 136 661 3 8 3 6 6 FFF1 667 668 669 135 662 2 0 45 24 667
 -.163119598929479 .00377158241875461 -.117828918678174 -.163119598929479 .00386
5919553696475 -.117828918678174 -.163119598929479 .00388548644782303 -.117759906
1661512 -.163119598929479 .003940325193535275 -.1175534665226586 -.1631195989294
79 .003914084426726585 -.1167802739451672 -.163119598929479 .00388480579236424 -
.1154638994350296 -.163119598929479 .00388292359271903 -.1149210663721058 -.1631
1959892949 .00388292359271903 -.114682918678163 127 6 668 4 1 1 1 1 4 128 6 669
 0 .0492704296271724 .0562048907005111 .439452951845943 .786743420057069 1 16 64
4 515 670 ?671 672 639 660 0 0 2 31 666 526 0 672 660 604 0 --.162 .00225 -.1145
 0 -1 0 0 0 -1 .016 16 672 521 673 ?674 609 644 666 0 0 2 31 604 550 0 609 666 1
0 0 +-.162 .01 -.1145 0 1 0 0 0 1 .0155 16 609 547 675 ?676 13 672 604 0 0 2 81
 2 675 576 54 609 0 0 607 0 677 678 17 676 0 679 676 676 0 680 609 0 0 +15 679 5
48 0 676 681 0 17 680 0 682 680 680 0 676 609 0 0 -15 682 567 0 680 602 0 14 602
 565 683 ?0 684 685 8 9 +0 0 0 684 606 81 2 683 574 54 602 0 0 673 607 686 687 1
4 684 534 688 ?602 689 690 8 603 +0 0 602 689 606 15 685 566 0 691 602 682 13 60
6 344 0 0 0 0 0 0 12 599 14 599 228 692 ?647 0 642 8 693 +0 0 647 0 606 81 2 692
 229 54 599 694 0 655 614 695 696 14 647 235 614 ?640 599 629 8 697 +0 0 640 599
 606 124 693 245 0 599 697 698 0 +699 700 124 697 246 0 647 701 693 0 +702 703 5
1 698 244 0 640 693 704 0 +-.16311959892949 -.00722841758124539 -.11468291867816
3 0 1 0 .003146000000011 0 0 1 126 699 FF3 3 8 4 6 5 6 2 TFF8 4 705 706 707 708
 709 125 700 0 1 0 1 0 1 0 1 1 BDBBBDBB????0 0 0 0 45 128 705 -.16311959892949 .
00377158241874359 -.117828918678163 1 -.0564705329764966 .001257194139581196 -.0
392763062260543 .3333333333333335 -.0564705329764966 .001257194139581196 -.03717
8972892721 .3333333333333335 -.16311959892949 .00377158241874359 -.1115369186781
63 1 -.16311959892949 .00386591955368545 -.117828918678163 1 -.0564705329764966
 .001288639851228476 -.0392763062260543 .3333333333333335 -.0564705329764966 .00
1288639851228476 -.037178972892721 .3333333333333335 -.16311959892949 .003865919
55368545 -.111536918678163 1 -.16311959892949 .00388548644781201 -.1177599061661
402 1 -.0564245246351481 .001295162149270662 -.03925330205538005 .33333333333333
35 -.0564245246351481 .001295162149270662 -.03720197706339525 .3333333333333335
 -.16311959892949 .00388548644781201 -.1116059311901856 1 -.16311959892949 .0039
40325193524255 -.1175534665226476 1 -.0562868982061531 .001313441731174744 -.039
18448884088255 .3333333333333335 -.0562868982061531 .001313441731174744 -.037270
79027789275 .3333333333333335 -.16311959892949 .003940325193524255 -.11181237083
36782 1 -.16311959892949 .003914084426715595 -.1167802739451562 1 -.055771436487
8255 .00130469480890519 -.03892675798171875 .3333333333333335 -.0557714364878255
 .00130469480890519 -.03752852113705655 .3333333333333335 -.16311959892949 .0039
14084426715595 -.1125855634111696 1 -.16311959892949 .00388480579235322 -.115463
8994350186 1 -.0548938534810671 .00129493526411773 -.03848796647833955 .33333333
33333335 -.0548938534810671 .00129493526411773 -.03796731264043575 .333333333333
3335 -.16311959892949 .00388480579235322 -.1139019379213072 1 -.16311959892949 .
00388292359270804 -.1149210663720948 1 -.0545319647724513 .00129430786423601 -.0
383070221240316 .3333333333333335 -.0545319647724513 .00129430786423601 -.038148
2569947437 .3333333333333335 -.16311959892949 .00388292359270804 -.1144447709842
31 1 -.16311959892949 .00388292359270804 -.114682918678163 1 -.0543731996431633
 .00129430786423601 -.03822763955938765 .3333333333333335 -.0543731996431633 .00
129430786423601 -.03822763955938765 .3333333333333335 -.16311959892949 .00388292
359270804 -.114682918678163 1 127 6 706 4 1 1 1 1 4 127 2 707 4 4 128 6 708 0 .0
492704296271724 .0562048907005111 .439452951845943 .786743420057069 1 128 2 709
 0 1 14 640 206 710 ?711 647 618 8 698 -0 0 711 647 606 51 704 106 0 711 698 712
 0 --.162 .01 -.1145 0 -1 0 .016 0 0 -1 14 711 71 713 ?681 640 714 8 704 -0 0 68
1 640 606 50 712 107 0 681 704 715 0 +-.162 .01 -.1145 0 1 0 0 0 1 14 681 75 716
 ?717 711 679 8 712 +0 0 717 711 606 50 715 127 0 689 712 603 0 +-.162 0 -.1145
 0 1 0 0 0 1 14 689 78 718 ?684 717 719 8 715 -0 0 684 717 606 52 603 541 720 68
4 715 9 0 +-.162 .0025 -.1145 0 -1 0 .01575 .707106781186553 .707106781186542 0
 0 -1 81 2 720 542 591 603 0 0 0 601 721 722 81 2 601 573 591 9 0 0 720 0 723 72
4 84 6 721 BAAAAB83 3 722 0 .001 .001 84 6 723 BAAAAB83 3 724 0 5e-4 5e-4 81 2 7
18 361 54 689 0 0 596 710 725 726 14 717 317 727 ?689 681 728 8 701 +0 0 689 681
 606 15 719 365 0 729 689 730 17 729 0 719 729 729 0 731 732 0 0 +15 730 305 0 7
33 689 0 17 733 0 730 733 733 0 734 649 0 0 -17 734 0 735 734 734 0 733 649 0 0
 +16 649 299 636 ?734 621 732 659 0 0 2 81 2 636 300 54 649 0 0 626 727 736 737
 16 732 370 738 ?729 649 0 739 0 0 2 31 659 338 0 649 739 646 0 +-.162 0 -.1145
 0 1 0 0 0 1 .01675 31 739 479 0 732 0 659 0 +-.16311959892949 0 -.1146829186781
63 0 1 0 0 0 1 .003146000000011 81 2 738 513 54 732 0 0 710 688 740 741 81 2 710
 512 54 640 0 0 718 738 742 743 81 2 688 543 54 684 0 0 738 670 744 745 84 27 74
0 F1348.Cap1b..F3158.c(X3140)82 1 741 3166 81 2 670 544 54 644 0 0 688 673 746 7
47 84 14 744 F3366.c(X3186)82 1 745 3367 81 2 673 545 54 672 0 0 670 683 748 749
 84 33 746 F3179.F3173.E3174..F3366.c(X3186)82 1 747 3368 84 33 748 F1348.F1276.
E1291..F3366.c(X3186)82 1 749 3373 84 14 742 F3158.c(X3140)82 1 743 3161 81 2 72
7 318 54 717 0 0 636 596 750 751 84 30 736 F3179.Cap1t..F3179.F3173.E317482 1 73
7 3185 81 2 596 359 54 2 0 5 727 718 752 0 84 17 750 F3179.F3173.E317482 1 751 3
184 84 11 752 F3081.IN6.B15 735 319 0 734 717 0 17 731 0 641 731 731 0 729 732 0
 0 -15 641 435 0 731 640 0 15 728 516 0 671 717 735 51 701 331 0 717 0 697 0 +-.
162 0 -.1145 0 1 0 .01675 0 0 1 17 671 0 728 671 671 0 753 644 0 0 +17 753 0 690
 753 753 0 671 644 0 0 -15 690 535 0 753 684 754 15 754 536 0 755 684 0 17 755 0
 754 755 755 0 674 672 0 0 -17 674 0 756 674 674 0 755 672 0 0 +15 756 522 0 674
 711 0 84 11 725 F1348.Cap1b82 1 726 3089 81 2 716 76 54 681 0 0 713 643 757 758
 81 2 713 72 54 711 0 0 0 716 759 760 81 2 643 165 54 639 761 0 716 650 762 763
 84 11 757 F1348.Cap1t82 1 758 1362 81 1 761 166 764 639 765 643 0 652 766 84 14
 762 F3158.c(X3145)82 1 763 3162 80 1 764 767 768 8017 0 0 0 0 0 0 0 0 0 TTTTTTT
TTTTTTF3 81 1 765 167 769 639 0 761 0 770 771 81 1 652 170 764 632 770 650 761 7
72 773 84 4 766 NONE81 1 770 171 769 632 774 652 765 775 776 81 1 772 175 764 62
1 775 648 652 777 778 84 4 773 NONE81 1 775 176 769 621 0 772 770 779 780 81 2 6
48 174 54 621 772 0 650 655 781 782 81 1 777 179 764 645 779 655 772 635 783 84
 4 778 NONE81 1 779 180 769 645 784 777 775 785 786 81 2 655 178 54 645 777 0 64
8 692 787 788 81 1 635 195 764 624 785 626 777 625 789 84 4 783 NONE81 1 785 196
 769 624 790 635 779 791 792 81 1 625 199 764 612 791 615 635 613 793 84 4 789 N
ONE81 1 791 200 769 612 794 625 785 795 796 81 1 613 203 764 14 795 610 625 797
 798 84 4 793 NONE81 1 795 204 769 14 799 613 791 800 801 81 1 797 231 764 599 8
00 694 613 802 803 84 4 798 NONE81 1 800 232 769 599 804 797 795 805 806 81 1 69
4 230 807 599 797 692 0 808 809 81 1 802 238 764 647 805 808 797 0 810 84 4 803
 NONE81 1 805 239 769 647 811 802 800 0 812 81 1 808 237 807 647 802 614 694 0 8
13 84 4 810 NONE80 1 807 0 814 8001 0 0 0 0 3 5 0 0 0 FFFFTFTFFFFFFF2 81 2 614 2
36 54 647 808 0 692 610 815 816 83 3 813 .694117665290833 .0980392172932625 .098
0392172932625 84 14 815 F3158.c(X3139)82 1 816 3160 79 15 814 SDL/TYSA_COLOUR80
 1 769 764 817 8038 0 0 0 0 0 0 0 0 0 TTTTTTTTTTTTTF10 81 1 811 240 818 647 0 80
5 804 0 819 98 4 812 78 79 78 69 80 1 818 820 821 9000 0 0 0 0 3 5 0 0 0 TTTFTFT
TFFFFFF3 81 1 804 233 818 599 0 800 799 811 822 84 4 819 224881 1 799 205 818 14
 0 795 794 804 823 84 4 822 646581 1 794 201 818 612 0 791 790 799 824 84 4 823
 637181 1 790 197 818 624 0 785 784 794 825 84 4 824 522781 1 784 181 818 645 0
 779 774 790 826 84 4 825 545881 1 774 172 818 632 0 770 0 784 827 84 4 826 5690
84 4 827 495279 18 821 ATTRIB_XGENERIC_ID79 14 817 SDL/TYSA_UNAME83 3 809 .69411
7665290833 .0980392172932625 .0980392172932625 98 4 806 78 79 78 69 98 4 801 78
 79 78 69 98 4 796 78 79 78 69 98 4 792 78 79 78 69 84 14 787 F3158.c(X3148)82 1
 788 3164 98 4 786 78 79 78 69 84 14 781 F3158.c(X3146)82 1 782 3165 98 4 780 78
 79 78 69 98 4 776 78 79 78 69 98 4 771 78 79 78 69 79 13 768 SDL/TYSA_NAME84 17
 759 F1348.F1276.E129182 1 760 1364 15 714 554 0 608 711 756 17 608 0 714 608 60
8 0 691 13 0 0 +17 691 0 685 691 691 0 608 13 0 0 -126 702 FF3 3 8 4 6 5 6 2 TFF
8 4 828 829 830 831 832 125 703 0 1 0 1 0 1 0 1 1 BDBBBDBB????0 0 0 0 45 128 828
 -.16311959892949 .00377158241874359 -.111536918678163 1 -.05227586630983 .00125
7194139581196 -.037178972892721 .3333333333333335 -.05227586630983 .001257194139
581196 -.0392763062260543 .3333333333333335 -.16311959892949 .00377158241874359
 -.117828918678163 1 -.16311959892949 .00386591955368545 -.111536918678163 1 -.0
5227586630983 .001288639851228476 -.037178972892721 .3333333333333335 -.05227586
630983 .001288639851228476 -.0392763062260543 .3333333333333335 -.16311959892949
 .00386591955368545 -.117828918678163 1 -.16311959892949 .00388548644781201 -.11
16059311901856 1 -.0523218746511785 .001295162149270662 -.03720197706339525 .333
3333333333335 -.0523218746511785 .001295162149270662 -.03925330205538005 .333333
3333333335 -.16311959892949 .00388548644781201 -.1177599061661402 1 -.1631195989
2949 .003940325193524255 -.1118123708336782 1 -.0524595010801735 .00131344173117
4744 -.03727079027789275 .3333333333333335 -.0524595010801735 .00131344173117474
4 -.03918448884088255 .3333333333333335 -.16311959892949 .003940325193524255 -.1
175534665226476 1 -.16311959892949 .003914084426715595 -.1125855634111696 1 -.05
29749627985011 .00130469480890519 -.03752852113705655 .3333333333333335 -.052974
9627985011 .00130469480890519 -.03892675798171875 .3333333333333335 -.1631195989
2949 .003914084426715595 -.1167802739451562 1 -.16311959892949 .0038848057923532
2 -.1139019379213072 1 -.0538525458052595 .00129493526411773 -.03796731264043575
 .3333333333333335 -.0538525458052595 .00129493526411773 -.03848796647833955 .33
33333333333335 -.16311959892949 .00388480579235322 -.1154638994350186 1 -.163119
59892949 .00388292359270804 -.114444770984231 1 -.0542144345138754 .001294307864
23601 -.0381482569947437 .3333333333333335 -.0542144345138754 .00129430786423601
 -.0383070221240316 .3333333333333335 -.16311959892949 .00388292359270804 -.1149
210663720948 1 -.16311959892949 .00388292359270804 -.114682918678163 1 -.0543731
996431633 .00129430786423601 -.03822763955938765 .3333333333333335 -.05437319964
31633 .00129430786423601 -.03822763955938765 .3333333333333335 -.16311959892949
 .00388292359270804 -.114682918678163 1 127 6 829 4 1 1 1 1 4 127 2 830 4 4 128
 6 831 0 .0492704296271724 .0562048907005111 .439452951845943 .786743420057069 1
 128 2 832 0 1 84 14 695 F3158.c(X3138)82 1 696 3159 81 2 607 575 54 13 0 0 683
 675 833 834 84 14 686 F3652.c(X1376)82 1 687 3653 84 33 833 F1348.F1276.E1291..
F3652.c(X1376)82 1 834 3655 84 27 677 F1348.Cap1t..F3652.c(X1376)82 1 678 3654 8
4 14 653 F3158.c(X3147)82 1 654 3163 84 10 637 F3158.Vtx382 1 638 3167 84 10 627
 F3158.Vtx282 1 628 3168 84 10 616 F3158.Vtx182 1 617 3169 19 600 1 0 2 0 12 8 S
0 74 20 598 7 0 0 675 811 805 802 808 5 601 0 0 0 0 0 0 0 0 0 0 0 0 0 82 1 597 5
2 1 0 
